<svg width="36" height="36" viewBox="0 0 36 36" fill="none" xmlns="http://www.w3.org/2000/svg">
<path d="M17.7498 20.8325C19.4404 20.8325 20.8243 19.4555 20.8243 17.7581C20.8243 17.09 20.6061 16.4696 20.2448 15.9652C19.6858 15.1949 18.7792 14.6836 17.7566 14.6836C16.7341 14.6836 15.8274 15.1881 15.2684 15.9652C14.9071 16.4696 14.689 17.09 14.689 17.7581C14.6822 19.4555 16.0592 20.8325 17.7498 20.8325Z" fill="#0029FF"/>
<path d="M24.4578 14.0089V11.432V11.0503H24.0761L21.4993 11.0571L21.5129 14.0157L24.4578 14.0089Z" fill="#0029FF"/>
<path d="M22.5221 17.7645C22.5221 20.3959 20.3816 22.5364 17.7503 22.5364C15.1189 22.5364 12.9784 20.3959 12.9784 17.7645C12.9784 17.1306 13.1079 16.5239 13.3328 15.9717H10.7288V23.1159C10.7288 24.0362 11.4786 24.786 12.3989 24.786H23.1016C24.0219 24.786 24.7717 24.0362 24.7717 23.1159V15.9717H22.1677C22.3994 16.5239 22.5221 17.1306 22.5221 17.7645Z" fill="#0029FF"/>
<path d="M17.7498 0.312988C8.1106 0.312988 0.29834 8.12525 0.29834 17.7645C0.29834 27.4037 8.1106 35.2159 17.7498 35.2159C27.389 35.2159 35.2013 27.4037 35.2013 17.7645C35.2013 8.12525 27.389 0.312988 17.7498 0.312988ZM26.4755 15.9716V23.1158C26.4755 24.9768 24.9622 26.4902 23.1011 26.4902H12.3985C10.5374 26.4902 9.02408 24.9768 9.02408 23.1158V15.9716V12.4063C9.02408 10.5453 10.5374 9.03191 12.3985 9.03191H23.1011C24.9622 9.03191 26.4755 10.5453 26.4755 12.4063V15.9716Z" fill="#0029FF"/>
</svg>
