<svg width="36" height="36" viewBox="0 0 36 36" fill="none" xmlns="http://www.w3.org/2000/svg">
<g clip-path="url(#clip0_324_165)">
<path d="M18.3987 0.312988C8.75953 0.312988 0.947266 8.12525 0.947266 17.7645C0.947266 27.4037 8.75953 35.2159 18.3987 35.2159C28.0379 35.2159 35.8502 27.4037 35.8502 17.7645C35.8502 8.12525 28.0379 0.312988 18.3987 0.312988ZM13.5178 25.0654H10.1161V14.1787H13.5178V25.0654ZM11.7249 12.8153H11.6976C10.4638 12.8153 9.66618 11.9837 9.66618 10.927C9.66618 9.84995 10.491 9.03872 11.7454 9.03872C12.9997 9.03872 13.77 9.84995 13.7973 10.927C13.8041 11.9768 13.0065 12.8153 11.7249 12.8153ZM27.1245 25.0654H23.2661V19.4346C23.2661 17.9622 22.6662 16.9532 21.3369 16.9532C20.3211 16.9532 19.7553 17.6349 19.4963 18.2894C19.4008 18.5211 19.4145 18.8484 19.4145 19.1824V25.0654H15.5901C15.5901 25.0654 15.6379 15.0854 15.5901 14.1787H19.4145V15.8898C19.6394 15.1399 20.8597 14.0765 22.8093 14.0765C25.2294 14.0765 27.1245 15.6444 27.1245 19.012V25.0654Z" fill="#0029FF"/>
</g>
<defs>
<clipPath id="clip0_324_165">
<rect width="34.9029" height="34.9029" fill="white" transform="translate(0.947021 0.312988)"/>
</clipPath>
</defs>
</svg>
