<svg width="35" height="36" viewBox="0 0 35 36" fill="none" xmlns="http://www.w3.org/2000/svg">
<g clip-path="url(#clip0_324_163)">
<path d="M17.4515 0.312988C7.81226 0.312988 0 8.12525 0 17.7645C0 27.4037 7.81226 35.2159 17.4515 35.2159C27.0907 35.2159 34.9029 27.4037 34.9029 17.7645C34.9029 8.12525 27.0907 0.312988 17.4515 0.312988ZM24.4184 15.0513C24.4252 15.2013 24.4252 15.3581 24.4252 15.5149C24.4252 20.2527 20.8191 25.7199 14.2202 25.7199C12.1956 25.7199 10.3073 25.1268 8.72574 24.1111C9.00523 24.1452 9.29155 24.1588 9.58468 24.1588C11.2617 24.1588 12.8091 23.5862 14.0362 22.625C12.4683 22.5977 11.1389 21.5615 10.689 20.1368C10.9072 20.1777 11.1321 20.1981 11.3639 20.1981C11.6911 20.1981 12.0115 20.1572 12.3115 20.0686C10.6686 19.7414 9.4347 18.2894 9.4347 16.551V16.5101C9.91871 16.776 10.4709 16.9396 11.0571 16.9601C10.0959 16.3193 9.46197 15.2149 9.46197 13.9742C9.46197 13.3198 9.63921 12.6994 9.94598 12.1677C11.7184 14.3423 14.3566 15.7671 17.3356 15.9171C17.2742 15.658 17.2401 15.3853 17.2401 15.099C17.2401 13.1221 18.849 11.5133 20.8259 11.5133C21.8552 11.5133 22.7892 11.9496 23.4436 12.6449C24.2616 12.4813 25.0251 12.1882 25.7205 11.7723C25.4546 12.6108 24.882 13.313 24.1457 13.7561C24.8683 13.6675 25.5637 13.4766 26.2045 13.1903C25.7273 13.9129 25.1206 14.54 24.4184 15.0513Z" fill="#0029FF"/>
</g>
<defs>
<clipPath id="clip0_324_163">
<rect width="34.9029" height="34.9029" fill="white" transform="translate(0 0.312988)"/>
</clipPath>
</defs>
</svg>
