<svg width="36" height="36" viewBox="0 0 36 36" fill="none" xmlns="http://www.w3.org/2000/svg">
<g clip-path="url(#clip0_324_167)">
<path d="M16.02 21.1254L21.7326 17.7714L16.02 14.4175V21.1254Z" fill="#0029FF"/>
<path d="M18.3453 0.312988C8.70606 0.312988 0.893799 8.12525 0.893799 17.7645C0.893799 27.4037 8.70606 35.2159 18.3453 35.2159C27.9845 35.2159 35.7967 27.4037 35.7967 17.7645C35.7967 8.12525 27.9845 0.312988 18.3453 0.312988ZM27.071 20.8866C27.071 23.8929 24.0647 23.8929 24.0647 23.8929H12.6258C9.61954 23.8929 9.61953 20.8866 9.61953 20.8866V14.6491C9.61953 11.6428 12.6258 11.6428 12.6258 11.6428H24.0647C27.071 11.6428 27.071 14.6491 27.071 14.6491V20.8866Z" fill="#0029FF"/>
</g>
<defs>
<clipPath id="clip0_324_167">
<rect width="34.9029" height="34.9029" fill="white" transform="translate(0.893799 0.312988)"/>
</clipPath>
</defs>
</svg>
