<svg width="158" height="62" viewBox="0 0 158 62" fill="none" xmlns="http://www.w3.org/2000/svg">
<path d="M41.9905 58.7651L41.0986 51.0571H42.486L43.0916 56.3261L45.1728 51.0571H46.4006L47.0062 56.3261L49.0818 51.0571H50.4693L47.4301 58.7651H45.905L45.3655 54.0963L43.5211 58.7651H41.9905ZM55.0375 58.9083C54.5163 58.9083 54.0392 58.8055 53.6061 58.6C53.1766 58.3907 52.8132 58.1026 52.5159 57.7356C52.2223 57.3685 52.0094 56.9446 51.8773 56.4638C51.7488 55.9792 51.7231 55.4617 51.8002 54.9111C51.8773 54.3606 52.0479 53.8449 52.3122 53.364C52.5765 52.8795 52.9087 52.4538 53.3088 52.0867C53.7125 51.7197 54.1585 51.4334 54.6466 51.2278C55.1348 51.0186 55.6395 50.914 56.1607 50.914C56.6856 50.914 57.1627 51.0186 57.5922 51.2278C58.0216 51.4334 58.3832 51.7197 58.6768 52.0867C58.9741 52.4538 59.187 52.8795 59.3155 53.364C59.4476 53.8449 59.4751 54.3606 59.3981 54.9111C59.321 55.4617 59.1503 55.9792 58.886 56.4638C58.6218 56.9446 58.2877 57.3685 57.884 57.7356C57.4839 58.1026 57.0398 58.3907 56.5516 58.6C56.0671 58.8055 55.5624 58.9083 55.0375 58.9083ZM55.2247 57.5649C55.5624 57.5649 55.8891 57.4952 56.2048 57.3557C56.5241 57.2162 56.8122 57.0253 57.0691 56.7831C57.3298 56.5372 57.5463 56.2545 57.7188 55.9352C57.8913 55.6159 58.0033 55.2745 58.0547 54.9111C58.1061 54.5478 58.0895 54.2064 58.0051 53.8871C57.9244 53.5641 57.7886 53.2815 57.5977 53.0392C57.4068 52.797 57.1719 52.6061 56.893 52.4666C56.6177 52.3271 56.3112 52.2574 55.9735 52.2574C55.6358 52.2574 55.3073 52.3271 54.988 52.4666C54.6723 52.6061 54.3842 52.7988 54.1236 53.0447C53.8667 53.287 53.6519 53.5678 53.4794 53.8871C53.3069 54.2064 53.195 54.5478 53.1436 54.9111C53.0922 55.2782 53.1069 55.6214 53.1876 55.9407C53.272 56.26 53.4097 56.5427 53.6006 56.7886C53.7914 57.0308 54.0245 57.2217 54.2998 57.3612C54.5787 57.497 54.8871 57.5649 55.2247 57.5649ZM61.1791 58.7651L62.2582 51.0571H65.2148C65.6332 51.0571 65.9966 51.1618 66.3049 51.371C66.6132 51.5802 66.8408 51.861 66.9876 52.2133C67.1381 52.562 67.184 52.9493 67.1252 53.3751C67.0775 53.7237 66.9692 54.0449 66.8004 54.3385C66.6316 54.6285 66.4187 54.8799 66.1617 55.0928C65.9085 55.3057 65.6258 55.4672 65.3139 55.5773L66.7178 58.7651H65.1707L63.8163 55.6985H62.9519L62.5225 58.7651H61.1791ZM63.1391 54.3551H64.5981C64.789 54.3551 64.9688 54.3074 65.1377 54.2119C65.3102 54.1165 65.4552 53.988 65.5726 53.8265C65.6937 53.665 65.7672 53.4852 65.7929 53.287C65.8222 53.0851 65.8002 52.9034 65.7268 52.7419C65.657 52.5804 65.5488 52.4519 65.4019 52.3565C65.2588 52.2611 65.0918 52.2133 64.9009 52.2133H63.4419L63.1391 54.3551ZM74.7246 58.7651H72.9738L71.234 55.7425L70.7935 56.1885L70.4356 58.7651H69.0922L70.1713 51.0571H71.5147L71.0853 54.1018L74.0639 51.0571H75.8202L72.258 54.6909L74.7246 58.7651ZM79.4572 58.9083C79.0314 58.9083 78.6313 58.8422 78.2569 58.7101C77.8862 58.5743 77.5724 58.3816 77.3154 58.132C77.0585 57.8787 76.8897 57.5759 76.8089 57.2235L78.1358 56.7611C78.1688 56.9079 78.2551 57.0419 78.3945 57.163C78.534 57.2841 78.712 57.3814 78.9286 57.4548C79.1452 57.5282 79.3837 57.5649 79.6443 57.5649C79.9123 57.5649 80.1674 57.5245 80.4096 57.4438C80.6556 57.3593 80.8611 57.2437 81.0263 57.0969C81.1914 56.9464 81.2887 56.7721 81.3181 56.5739C81.3474 56.372 81.2942 56.2068 81.1584 56.0784C81.0263 55.9462 80.8483 55.8416 80.6244 55.7645C80.4041 55.6874 80.1711 55.6287 79.9251 55.5883C79.3892 55.5039 78.9176 55.3736 78.5102 55.1974C78.1027 55.0213 77.7944 54.7772 77.5852 54.4652C77.3797 54.1532 77.3099 53.7494 77.376 53.2539C77.4421 52.7878 77.6329 52.3804 77.9486 52.0317C78.2679 51.683 78.6588 51.4113 79.1213 51.2168C79.5875 51.0223 80.0738 50.925 80.5803 50.925C81.0024 50.925 81.3988 50.9911 81.7695 51.1232C82.1439 51.2554 82.4614 51.4481 82.722 51.7013C82.9826 51.9546 83.1533 52.2592 83.2341 52.6153L81.9017 53.0722C81.8686 52.9254 81.7824 52.7914 81.6429 52.6703C81.5034 52.5492 81.3254 52.4538 81.1089 52.384C80.8923 52.3106 80.6537 52.2739 80.3931 52.2739C80.1325 52.2702 79.8793 52.3124 79.6333 52.4005C79.3874 52.485 79.18 52.6006 79.0112 52.7474C78.846 52.8942 78.7487 53.0631 78.7194 53.2539C78.6864 53.4998 78.7304 53.6852 78.8515 53.81C78.9726 53.9348 79.1433 54.0266 79.3636 54.0853C79.5875 54.1403 79.837 54.1917 80.1123 54.2394C80.6189 54.3202 81.0758 54.456 81.4832 54.6469C81.8943 54.8377 82.21 55.0928 82.4302 55.4122C82.6505 55.7278 82.7275 56.1151 82.6615 56.5739C82.5954 57.04 82.4045 57.4493 82.0889 57.8016C81.7769 58.1503 81.3878 58.4219 80.9217 58.6165C80.4592 58.811 79.971 58.9083 79.4572 58.9083ZM90.5451 51.0571H91.8885L90.8094 58.7651H89.466L89.945 55.3076H86.7572L86.2727 58.7651H84.9293L86.0084 51.0571H87.3518L86.9444 53.9642H90.1322L90.5451 51.0571ZM97.0121 58.9083C96.4909 58.9083 96.0137 58.8055 95.5806 58.6C95.1512 58.3907 94.7878 58.1026 94.4905 57.7356C94.1968 57.3685 93.984 56.9446 93.8518 56.4638C93.7234 55.9792 93.6977 55.4617 93.7747 54.9111C93.8518 54.3606 94.0225 53.8449 94.2868 53.364C94.551 52.8795 94.8832 52.4538 95.2833 52.0867C95.6871 51.7197 96.133 51.4334 96.6212 51.2278C97.1094 51.0186 97.6141 50.914 98.1353 50.914C98.6601 50.914 99.1373 51.0186 99.5667 51.2278C99.9962 51.4334 100.358 51.7197 100.651 52.0867C100.949 52.4538 101.162 52.8795 101.29 53.364C101.422 53.8449 101.45 54.3606 101.373 54.9111C101.296 55.4617 101.125 55.9792 100.861 56.4638C100.596 56.9446 100.262 57.3685 99.8585 57.7356C99.4585 58.1026 99.0143 58.3907 98.5262 58.6C98.0417 58.8055 97.537 58.9083 97.0121 58.9083ZM97.1993 57.5649C97.537 57.5649 97.8636 57.4952 98.1793 57.3557C98.4986 57.2162 98.7868 57.0253 99.0437 56.7831C99.3043 56.5372 99.5209 56.2545 99.6934 55.9352C99.8659 55.6159 99.9778 55.2745 100.029 54.9111C100.081 54.5478 100.064 54.2064 99.9797 53.8871C99.8989 53.5641 99.7631 53.2815 99.5722 53.0392C99.3814 52.797 99.1465 52.6061 98.8675 52.4666C98.5922 52.3271 98.2857 52.2574 97.9481 52.2574C97.6104 52.2574 97.2819 52.3271 96.9625 52.4666C96.6469 52.6061 96.3587 52.7988 96.0981 53.0447C95.8412 53.287 95.6265 53.5678 95.454 53.8871C95.2815 54.2064 95.1695 54.5478 95.1181 54.9111C95.0667 55.2782 95.0814 55.6214 95.1622 55.9407C95.2466 56.26 95.3842 56.5427 95.5751 56.7886C95.766 57.0308 95.999 57.2217 96.2743 57.3612C96.5533 57.497 96.8616 57.5649 97.1993 57.5649ZM103.154 58.7651L104.233 51.0571H106.986C107.404 51.0571 107.767 51.1618 108.076 51.371C108.388 51.5802 108.619 51.861 108.769 52.2133C108.92 52.5657 108.964 52.9529 108.902 53.3751C108.843 53.8082 108.685 54.2009 108.428 54.5533C108.175 54.902 107.863 55.1809 107.492 55.3901C107.125 55.5957 106.74 55.6985 106.336 55.6985H104.926L104.497 58.7651H103.154ZM105.114 54.3551H106.38C106.571 54.3551 106.751 54.3074 106.92 54.2119C107.092 54.1165 107.237 53.988 107.354 53.8265C107.476 53.665 107.547 53.4852 107.569 53.287C107.602 53.0851 107.582 52.9034 107.509 52.7419C107.435 52.5804 107.325 52.4519 107.178 52.3565C107.035 52.2611 106.868 52.2133 106.677 52.2133H105.416L105.114 54.3551Z" fill="#464646"/>
<path d="M46.8803 45.2079C45.7666 45.2079 44.7378 45.0192 43.794 44.6416C42.869 44.2641 42.0951 43.7356 41.4722 43.056C40.8492 42.3764 40.4339 41.5836 40.2263 40.6775L43.4259 39.375C43.7468 40.1867 44.2093 40.8191 44.8133 41.2722C45.4363 41.7252 46.163 41.9517 46.9936 41.9517C47.692 41.9517 48.2111 41.8101 48.5509 41.527C48.9096 41.2438 49.0889 40.9041 49.0889 40.5076C49.0889 40.0924 48.9379 39.7998 48.6359 39.6299C48.3338 39.4411 48.0507 39.309 47.7864 39.2335L45.2097 38.4973C44.0771 38.1764 43.1994 37.6478 42.5764 36.9116C41.9724 36.1566 41.6704 35.2599 41.6704 34.2217C41.6704 33.2212 41.9346 32.334 42.4632 31.5601C43.0106 30.7861 43.7562 30.1821 44.7001 29.7479C45.6439 29.2949 46.7104 29.0684 47.8997 29.0684C49.4476 29.0684 50.7595 29.4365 51.8355 30.1726C52.9303 30.9088 53.6571 31.9187 54.0157 33.2024L50.7595 34.5049C50.6274 33.8819 50.2687 33.3911 49.6835 33.0325C49.0983 32.6549 48.4565 32.4662 47.7581 32.4662C47.1729 32.4662 46.6916 32.5889 46.314 32.8343C45.9554 33.0608 45.776 33.3911 45.776 33.8253C45.776 34.2406 45.9365 34.5426 46.2574 34.7314C46.5783 34.9201 46.9087 35.0617 47.2484 35.1561L49.6269 35.8923C50.7973 36.2509 51.6845 36.7889 52.2885 37.5062C52.9114 38.2236 53.2229 39.0825 53.2229 40.0829C53.2229 41.0456 52.9492 41.914 52.4018 42.6879C51.8732 43.4618 51.1276 44.0753 50.1649 44.5284C49.221 44.9814 48.1262 45.2079 46.8803 45.2079ZM60.8317 45.2079C59.5481 45.2079 58.4815 44.9248 57.6321 44.3585C56.8015 43.7922 56.2163 42.9994 55.8766 41.98C55.5557 40.9607 55.4896 39.762 55.6784 38.384L56.9525 29.4081H61.1998L59.9539 38.4406C59.8784 39.0258 59.9256 39.5449 60.0955 39.998C60.2654 40.4321 60.5485 40.7719 60.945 41.0173C61.3414 41.2627 61.8133 41.3854 62.3607 41.3854C62.927 41.3854 63.4367 41.2627 63.8897 41.0173C64.3428 40.7719 64.7203 40.4321 65.0223 39.998C65.3432 39.5449 65.5414 39.0258 65.6169 38.4406L66.8628 29.4081H71.1101L68.9581 44.8682H64.994L65.3904 41.8101L65.5603 42.603C65.0884 43.5279 64.4371 44.198 63.6066 44.6133C62.776 45.0097 61.851 45.2079 60.8317 45.2079ZM80.3297 45.2079C78.8384 45.2079 77.4982 44.8776 76.309 44.2169C75.1386 43.5562 74.2137 42.6502 73.5341 41.4987C72.8734 40.3472 72.5431 39.0447 72.5431 37.5912C72.5431 36.402 72.7696 35.2882 73.2226 34.25C73.6757 33.2118 74.2986 32.3057 75.0914 31.5318C75.8842 30.7578 76.7998 30.1538 77.838 29.7196C78.8951 29.2854 80.0277 29.0684 81.2358 29.0684C82.4061 29.0684 83.4727 29.276 84.4354 29.6913C85.3981 30.0877 86.2098 30.6446 86.8705 31.3619C87.5312 32.0792 87.9842 32.9192 88.2296 33.8819L84.4637 35.3543C84.2561 34.5804 83.8597 33.9763 83.2745 33.5421C82.6893 33.108 81.9909 32.8909 81.1792 32.8909C80.3297 32.8909 79.5841 33.108 78.9423 33.5421C78.3193 33.9763 77.8285 34.552 77.4699 35.2694C77.1301 35.9867 76.9602 36.7606 76.9602 37.5912C76.9602 38.3463 77.1018 39.0069 77.3849 39.5732C77.6681 40.1395 78.0645 40.5832 78.5742 40.9041C79.1027 41.225 79.7068 41.3854 80.3863 41.3854C81.2735 41.3854 82.0475 41.1495 82.7082 40.6775C83.3689 40.2056 83.8597 39.5827 84.1806 38.8087L87.7766 40.536C87.4179 41.442 86.8705 42.2537 86.1343 42.9711C85.417 43.6695 84.5581 44.2169 83.5576 44.6133C82.5572 45.0097 81.4812 45.2079 80.3297 45.2079ZM97.9437 45.2079C96.4524 45.2079 95.1122 44.8776 93.9229 44.2169C92.7526 43.5562 91.8276 42.6502 91.1481 41.4987C90.4874 40.3472 90.157 39.0447 90.157 37.5912C90.157 36.402 90.3835 35.2882 90.8366 34.25C91.2896 33.2118 91.9126 32.3057 92.7054 31.5318C93.4982 30.7578 94.4137 30.1538 95.4519 29.7196C96.509 29.2854 97.6416 29.0684 98.8497 29.0684C100.02 29.0684 101.087 29.276 102.049 29.6913C103.012 30.0877 103.824 30.6446 104.484 31.3619C105.145 32.0792 105.598 32.9192 105.844 33.8819L102.078 35.3543C101.87 34.5804 101.474 33.9763 100.888 33.5421C100.303 33.108 99.6048 32.8909 98.7931 32.8909C97.9437 32.8909 97.198 33.108 96.5562 33.5421C95.9333 33.9763 95.4425 34.552 95.0838 35.2694C94.7441 35.9867 94.5742 36.7606 94.5742 37.5912C94.5742 38.3463 94.7157 39.0069 94.9989 39.5732C95.2821 40.1395 95.6785 40.5832 96.1881 40.9041C96.7167 41.225 97.3207 41.3854 98.0003 41.3854C98.8875 41.3854 99.6614 41.1495 100.322 40.6775C100.983 40.2056 101.474 39.5827 101.795 38.8087L105.391 40.536C105.032 41.442 104.484 42.2537 103.748 42.9711C103.031 43.6695 102.172 44.2169 101.172 44.6133C100.171 45.0097 99.0951 45.2079 97.9437 45.2079ZM115.416 45.2079C113.849 45.2079 112.49 44.8776 111.339 44.2169C110.187 43.5374 109.3 42.6218 108.677 41.4704C108.073 40.3189 107.771 39.0447 107.771 37.6478C107.771 36.4586 107.979 35.3543 108.394 34.335C108.809 33.2967 109.394 32.3812 110.149 31.5884C110.905 30.7956 111.782 30.1821 112.783 29.7479C113.783 29.2949 114.869 29.0684 116.039 29.0684C117.606 29.0684 118.927 29.3798 120.003 30.0028C121.079 30.6068 121.891 31.4374 122.438 32.4945C123.004 33.5516 123.288 34.7502 123.288 36.0905C123.288 36.4492 123.259 36.8078 123.203 37.1665C123.146 37.5251 123.071 37.9121 122.976 38.3274H111.367L111.594 35.2127H120.768L118.644 36.6285C118.889 35.8357 118.937 35.1278 118.786 34.5049C118.635 33.8819 118.314 33.3911 117.823 33.0325C117.351 32.6549 116.747 32.4662 116.011 32.4662C115.048 32.4662 114.283 32.7116 113.717 33.2024C113.151 33.6932 112.736 34.3444 112.471 35.1561C112.226 35.9678 112.103 36.8644 112.103 37.846C112.103 38.62 112.235 39.2901 112.5 39.8564C112.764 40.4038 113.151 40.8191 113.661 41.1023C114.17 41.3854 114.784 41.527 115.501 41.527C116.275 41.527 116.955 41.3665 117.54 41.0456C118.125 40.7247 118.578 40.3 118.899 39.7715L122.24 41.4987C121.881 42.2537 121.362 42.9144 120.683 43.4807C120.003 44.0282 119.21 44.4529 118.304 44.7549C117.417 45.0569 116.454 45.2079 115.416 45.2079ZM130.913 45.2079C129.799 45.2079 128.771 45.0192 127.827 44.6416C126.902 44.2641 126.128 43.7356 125.505 43.056C124.882 42.3764 124.467 41.5836 124.259 40.6775L127.459 39.375C127.779 40.1867 128.242 40.8191 128.846 41.2722C129.469 41.7252 130.196 41.9517 131.026 41.9517C131.725 41.9517 132.244 41.8101 132.584 41.527C132.942 41.2438 133.122 40.9041 133.122 40.5076C133.122 40.0924 132.971 39.7998 132.669 39.6299C132.367 39.4411 132.083 39.309 131.819 39.2335L129.242 38.4973C128.11 38.1764 127.232 37.6478 126.609 36.9116C126.005 36.1566 125.703 35.2599 125.703 34.2217C125.703 33.2212 125.967 32.334 126.496 31.5601C127.043 30.7861 127.789 30.1821 128.733 29.7479C129.677 29.2949 130.743 29.0684 131.932 29.0684C133.48 29.0684 134.792 29.4365 135.868 30.1726C136.963 30.9088 137.69 31.9187 138.048 33.2024L134.792 34.5049C134.66 33.8819 134.301 33.3911 133.716 33.0325C133.131 32.6549 132.489 32.4662 131.791 32.4662C131.206 32.4662 130.724 32.5889 130.347 32.8343C129.988 33.0608 129.809 33.3911 129.809 33.8253C129.809 34.2406 129.969 34.5426 130.29 34.7314C130.611 34.9201 130.941 35.0617 131.281 35.1561L133.66 35.8923C134.83 36.2509 135.717 36.7889 136.321 37.5062C136.944 38.2236 137.256 39.0825 137.256 40.0829C137.256 41.0456 136.982 41.914 136.434 42.6879C135.906 43.4618 135.16 44.0753 134.198 44.5284C133.254 44.9814 132.159 45.2079 130.913 45.2079ZM145.402 45.2079C144.289 45.2079 143.26 45.0192 142.316 44.6416C141.391 44.2641 140.617 43.7356 139.994 43.056C139.371 42.3764 138.956 41.5836 138.748 40.6775L141.948 39.375C142.269 40.1867 142.731 40.8191 143.335 41.2722C143.958 41.7252 144.685 41.9517 145.516 41.9517C146.214 41.9517 146.733 41.8101 147.073 41.527C147.432 41.2438 147.611 40.9041 147.611 40.5076C147.611 40.0924 147.46 39.7998 147.158 39.6299C146.856 39.4411 146.573 39.309 146.308 39.2335L143.732 38.4973C142.599 38.1764 141.721 37.6478 141.098 36.9116C140.494 36.1566 140.192 35.2599 140.192 34.2217C140.192 33.2212 140.457 32.334 140.985 31.5601C141.533 30.7861 142.278 30.1821 143.222 29.7479C144.166 29.2949 145.232 29.0684 146.422 29.0684C147.97 29.0684 149.282 29.4365 150.357 30.1726C151.452 30.9088 152.179 31.9187 152.538 33.2024L149.282 34.5049C149.149 33.8819 148.791 33.3911 148.206 33.0325C147.62 32.6549 146.979 32.4662 146.28 32.4662C145.695 32.4662 145.214 32.5889 144.836 32.8343C144.477 33.0608 144.298 33.3911 144.298 33.8253C144.298 34.2406 144.459 34.5426 144.779 34.7314C145.1 34.9201 145.431 35.0617 145.77 35.1561L148.149 35.8923C149.319 36.2509 150.206 36.7889 150.811 37.5062C151.433 38.2236 151.745 39.0825 151.745 40.0829C151.745 41.0456 151.471 41.914 150.924 42.6879C150.395 43.4618 149.65 44.0753 148.687 44.5284C147.743 44.9814 146.648 45.2079 145.402 45.2079Z" fill="#00D622"/>
<path d="M40.4453 26.7778L43.4051 5.63592H55.9393L55.3503 9.8039H46.9842L46.4858 13.3678H53.4022L52.8284 17.5358H45.912L44.6132 26.7778H40.4453ZM55.8475 11.6765H60.0155L57.9013 26.7778H53.7333L55.8475 11.6765ZM58.2184 9.93981C57.6043 9.93981 57.121 9.73846 56.7687 9.33575C56.4163 8.93305 56.2804 8.43471 56.3609 7.84072C56.4415 7.24673 56.7133 6.74839 57.1764 6.34568C57.6496 5.94298 58.1882 5.74163 58.7922 5.74163C59.3762 5.74163 59.8443 5.94298 60.1967 6.34568C60.549 6.74839 60.685 7.24673 60.6044 7.84072C60.5138 8.43471 60.242 8.93305 59.7889 9.33575C59.3359 9.73846 58.8124 9.93981 58.2184 9.93981ZM76.1265 17.1734L74.7976 26.7778H70.6296L71.8226 18.3211C71.8931 17.7875 71.8276 17.3093 71.6263 16.8864C71.435 16.4535 71.143 16.1112 70.7504 15.8595C70.3578 15.6079 69.8947 15.482 69.3611 15.482C68.8376 15.482 68.3443 15.6079 67.8811 15.8595C67.418 16.1112 67.0304 16.4535 66.7183 16.8864C66.4062 17.3093 66.215 17.7875 66.1445 18.3211L64.9515 26.7778H60.7835L62.8826 11.6765H67.0506L66.8996 12.794C67.4835 12.3107 68.1328 11.9332 68.8476 11.6614C69.5624 11.3895 70.2974 11.2536 71.0524 11.2536C72.1498 11.2536 73.1062 11.5204 73.9217 12.054C74.7372 12.5876 75.3463 13.3024 75.749 14.1984C76.1617 15.0843 76.2876 16.076 76.1265 17.1734ZM90.116 11.6765H94.284L92.1698 26.7778H87.9867L88.0018 25.2073C87.5287 25.7912 86.9598 26.2644 86.2954 26.6268C85.6309 26.9893 84.8859 27.1705 84.0604 27.1705C82.9328 27.1705 81.9059 26.959 80.9797 26.5362C80.0635 26.1134 79.2883 25.5295 78.6541 24.7845C78.0198 24.0395 77.5617 23.1787 77.2799 22.2021C76.998 21.2155 76.9376 20.1584 77.0986 19.0308C77.2497 17.9536 77.5869 16.9468 78.1104 16.0106C78.644 15.0743 79.3135 14.2487 80.1189 13.5339C80.9243 12.8191 81.8203 12.2604 82.807 11.8577C83.8036 11.455 84.8406 11.2536 85.9178 11.2536C86.8441 11.2536 87.6495 11.4499 88.3341 11.8426C89.0187 12.2352 89.5975 12.7336 90.0707 13.3376L90.116 11.6765ZM84.4983 23.1686C85.193 23.1686 85.8423 22.9924 86.4464 22.6401C87.0504 22.2877 87.5538 21.8145 87.9565 21.2205C88.3693 20.6165 88.626 19.952 88.7267 19.2271C88.8274 18.4922 88.7569 17.8278 88.5153 17.2338C88.2737 16.6398 87.9012 16.1666 87.3978 15.8142C86.8944 15.4619 86.3004 15.2857 85.6158 15.2857C84.9211 15.2857 84.2668 15.4619 83.6526 15.8142C83.0385 16.1666 82.5251 16.6448 82.1123 17.2489C81.6995 17.8429 81.4428 18.5023 81.3421 19.2271C81.2414 19.952 81.317 20.6165 81.5686 21.2205C81.8203 21.8145 82.2029 22.2877 82.7163 22.6401C83.2298 22.9924 83.8238 23.1686 84.4983 23.1686ZM109.929 17.1734L108.6 26.7778H104.432L105.625 18.3211C105.695 17.7875 105.63 17.3093 105.429 16.8864C105.237 16.4535 104.945 16.1112 104.553 15.8595C104.16 15.6079 103.697 15.482 103.163 15.482C102.64 15.482 102.147 15.6079 101.683 15.8595C101.22 16.1112 100.833 16.4535 100.521 16.8864C100.209 17.3093 100.017 17.7875 99.9468 18.3211L98.7538 26.7778H94.5858L96.6849 11.6765H100.853L100.702 12.794C101.286 12.3107 101.935 11.9332 102.65 11.6614C103.365 11.3895 104.1 11.2536 104.855 11.2536C105.952 11.2536 106.908 11.5204 107.724 12.054C108.539 12.5876 109.149 13.3024 109.551 14.1984C109.964 15.0843 110.09 16.076 109.929 17.1734ZM120.324 22.0058L123.782 24.0294C122.957 24.9757 121.98 25.7358 120.853 26.3097C119.725 26.8835 118.542 27.1705 117.304 27.1705C115.915 27.1705 114.696 26.8131 113.649 26.0983C112.612 25.3835 111.837 24.4271 111.324 23.229C110.82 22.0209 110.669 20.6869 110.871 19.2271C111.022 18.1197 111.359 17.0878 111.883 16.1314C112.416 15.1649 113.081 14.3192 113.876 13.5943C114.671 12.8594 115.552 12.2856 116.519 11.8728C117.495 11.46 118.502 11.2536 119.539 11.2536C120.777 11.2536 121.88 11.5406 122.846 12.1144C123.823 12.6883 124.588 13.4584 125.142 14.4249L121.094 16.4485C120.833 16.1163 120.515 15.8646 120.143 15.6934C119.77 15.5122 119.373 15.4216 118.95 15.4216C118.316 15.4216 117.717 15.5978 117.153 15.9502C116.599 16.3025 116.131 16.7707 115.748 17.3546C115.376 17.9284 115.139 18.5526 115.039 19.2271C114.948 19.8916 115.008 20.5108 115.22 21.0846C115.431 21.6585 115.769 22.1216 116.232 22.4739C116.695 22.8263 117.249 23.0025 117.893 23.0025C118.326 23.0025 118.749 22.9119 119.161 22.7307C119.584 22.5494 119.972 22.3078 120.324 22.0058ZM126.948 11.6765H131.116L129.002 26.7778H124.834L126.948 11.6765ZM129.319 9.93981C128.705 9.93981 128.221 9.73846 127.869 9.33575C127.517 8.93305 127.381 8.43471 127.461 7.84072C127.542 7.24673 127.814 6.74839 128.277 6.34568C128.75 5.94298 129.288 5.74163 129.893 5.74163C130.476 5.74163 130.945 5.94298 131.297 6.34568C131.649 6.74839 131.785 7.24673 131.705 7.84072C131.614 8.43471 131.342 8.93305 130.889 9.33575C130.436 9.73846 129.913 9.93981 129.319 9.93981ZM144.802 11.6765H148.97L146.856 26.7778H142.673L142.688 25.2073C142.214 25.7912 141.646 26.2644 140.981 26.6268C140.317 26.9893 139.572 27.1705 138.746 27.1705C137.619 27.1705 136.592 26.959 135.666 26.5362C134.749 26.1134 133.974 25.5295 133.34 24.7845C132.706 24.0395 132.248 23.1787 131.966 22.2021C131.684 21.2155 131.623 20.1584 131.784 19.0308C131.935 17.9536 132.273 16.9468 132.796 16.0106C133.33 15.0743 133.999 14.2487 134.805 13.5339C135.61 12.8191 136.506 12.2604 137.493 11.8577C138.489 11.455 139.526 11.2536 140.604 11.2536C141.53 11.2536 142.335 11.4499 143.02 11.8426C143.704 12.2352 144.283 12.7336 144.757 13.3376L144.802 11.6765ZM139.184 23.1686C139.879 23.1686 140.528 22.9924 141.132 22.6401C141.736 22.2877 142.24 21.8145 142.642 21.2205C143.055 20.6165 143.312 19.952 143.413 19.2271C143.513 18.4922 143.443 17.8278 143.201 17.2338C142.959 16.6398 142.587 16.1666 142.084 15.8142C141.58 15.4619 140.986 15.2857 140.302 15.2857C139.607 15.2857 138.953 15.4619 138.338 15.8142C137.724 16.1666 137.211 16.6448 136.798 17.2489C136.385 17.8429 136.129 18.5023 136.028 19.2271C135.927 19.952 136.003 20.6165 136.254 21.2205C136.506 21.8145 136.889 22.2877 137.402 22.6401C137.916 22.9924 138.51 23.1686 139.184 23.1686ZM149.301 26.7778L152.472 4.12578H156.64L153.469 26.7778H149.301Z" fill="#002AFF"/>
<path d="M64.4954 4.56445H146.688" stroke="#00D622" stroke-width="0.786529"/>
<rect x="142.278" y="4.17139" width="5.89902" height="5.89902" transform="rotate(-45 142.278 4.17139)" fill="#00D622"/>
<g clip-path="url(#clip0_302_29)">
<path d="M2.13135 22.6146C2.13135 27.9007 4.23126 32.9703 7.96913 36.7082C11.707 40.4461 16.7767 42.546 22.0628 42.546C27.3489 42.546 32.4186 40.4461 36.1565 36.7082C39.8943 32.9703 41.9942 27.9007 41.9942 22.6146C41.9942 17.3284 39.8943 12.2588 36.1565 8.52089C32.4186 4.78302 27.3489 2.68311 22.0628 2.68311C16.7767 2.68311 11.707 4.78302 7.96913 8.52089C4.23126 12.2588 2.13135 17.3284 2.13135 22.6146Z" fill="#00D622"/>
<path d="M9.12549 21.0485C9.12549 21.0485 11.9277 27.5883 16.2891 27.5883C20.4945 27.5883 33.2669 12.7222 33.2669 12.7222C33.2669 12.7222 20.8554 32.9877 16.7034 32.9877C13.2508 32.9877 10.7605 28.0561 9.12549 21.0485Z" fill="white"/>
</g>
<defs>
<clipPath id="clip0_302_29">
<rect width="45.6187" height="45.6187" fill="white" transform="translate(0 2.20508)"/>
</clipPath>
</defs>
</svg>
